<svg width="512" height="512" viewBox="0 0 512 512" fill="none" xmlns="http://www.w3.org/2000/svg">
  <rect width="512" height="512" rx="96" fill="white"/>
  <g transform="translate(71, 51) scale(1)">
    <path d="M184.693 281.275C199.425 281.275 211.367 293.218 211.367 307.949L211.368 383.291C211.368 398.022 199.425 409.965 184.693 409.965C169.961 409.965 158.019 398.022 158.019 383.29L158.018 307.949C158.019 293.218 169.962 281.275 184.693 281.275ZM184.692 0C198.898 0.000161361 210.414 11.5161 210.414 25.7217V153.729C210.414 178.914 223.85 202.187 245.662 214.78L356.519 278.784C368.822 285.887 373.037 301.617 365.934 313.92C358.832 326.223 343.1 330.438 330.798 323.335L219.939 259.33C198.128 246.737 171.254 246.738 149.442 259.331L38.5868 323.334C26.2842 330.437 10.553 326.222 3.4501 313.919C-3.65243 301.616 0.562839 285.886 12.8651 278.783L123.723 214.779C145.534 202.186 158.971 178.913 158.971 153.728V25.7217C158.971 11.516 170.487 0 184.692 0ZM6.99404 106.592C14.3599 93.834 30.6735 89.4627 43.4315 96.8281L108.68 134.499C121.437 141.865 125.808 158.179 118.442 170.937C111.076 183.694 94.7628 188.065 82.0048 180.699L16.7577 143.029C3.99978 135.663 -0.37171 119.35 6.99404 106.592ZM325.785 96.8271C338.543 89.4618 354.857 93.8331 362.223 106.591C369.588 119.349 365.217 135.662 352.459 143.028L287.212 180.699C274.454 188.065 258.14 183.693 250.774 170.936C243.409 158.177 247.78 141.864 260.538 134.498L325.785 96.8271Z" fill="#00878A"/>
  </g>
</svg>